<mxfile host="Electron" modified="2023-12-10T08:51:11.364Z" agent="Mozilla/5.0 (Windows NT 10.0; Win64; x64) AppleWebKit/537.36 (KHTML, like Gecko) draw.io/22.0.1 Chrome/114.0.5735.289 Electron/25.8.4 Safari/537.36" etag="wmGz07ioQUA_NZdlUFb3" version="22.0.1" type="device">
  <diagram name="Page-1" id="rY78pbxjS33zWvEgH3hx">
    <mxGraphModel dx="1238" dy="914" grid="1" gridSize="10" guides="1" tooltips="1" connect="1" arrows="1" fold="1" page="1" pageScale="1" pageWidth="1100" pageHeight="850" math="1" shadow="0">
      <root>
        <mxCell id="0" />
        <mxCell id="1" parent="0" />
        <mxCell id="hg0VnIa8RW2PHBciKI9P-397" value="" style="rounded=0;whiteSpace=wrap;html=1;fillColor=none;strokeColor=#10739e;dashed=1;dashPattern=12 12;" vertex="1" parent="1">
          <mxGeometry x="70" y="480" width="680" height="500" as="geometry" />
        </mxCell>
        <mxCell id="hg0VnIa8RW2PHBciKI9P-344" style="edgeStyle=orthogonalEdgeStyle;rounded=0;orthogonalLoop=1;jettySize=auto;html=1;entryX=0.5;entryY=0;entryDx=0;entryDy=0;" edge="1" parent="1" source="hg0VnIa8RW2PHBciKI9P-338" target="hg0VnIa8RW2PHBciKI9P-342">
          <mxGeometry relative="1" as="geometry" />
        </mxCell>
        <mxCell id="hg0VnIa8RW2PHBciKI9P-338" value="" style="rounded=0;whiteSpace=wrap;html=1;" vertex="1" parent="1">
          <mxGeometry x="250" y="340" width="120" height="60" as="geometry" />
        </mxCell>
        <mxCell id="hg0VnIa8RW2PHBciKI9P-339" value="s_global_reset" style="text;html=1;align=center;verticalAlign=middle;resizable=0;points=[];autosize=1;strokeColor=none;fillColor=none;" vertex="1" parent="1">
          <mxGeometry x="190" y="310" width="100" height="30" as="geometry" />
        </mxCell>
        <mxCell id="hg0VnIa8RW2PHBciKI9P-341" style="edgeStyle=orthogonalEdgeStyle;rounded=0;orthogonalLoop=1;jettySize=auto;html=1;entryX=0.5;entryY=0;entryDx=0;entryDy=0;" edge="1" parent="1" source="hg0VnIa8RW2PHBciKI9P-340" target="hg0VnIa8RW2PHBciKI9P-338">
          <mxGeometry relative="1" as="geometry">
            <mxPoint x="330" y="330" as="targetPoint" />
          </mxGeometry>
        </mxCell>
        <mxCell id="hg0VnIa8RW2PHBciKI9P-340" value="global_reset" style="text;html=1;align=center;verticalAlign=middle;resizable=0;points=[];autosize=1;strokeColor=none;fillColor=none;" vertex="1" parent="1">
          <mxGeometry x="265" y="240" width="90" height="30" as="geometry" />
        </mxCell>
        <mxCell id="hg0VnIa8RW2PHBciKI9P-347" style="edgeStyle=orthogonalEdgeStyle;rounded=0;orthogonalLoop=1;jettySize=auto;html=1;entryX=0.5;entryY=0;entryDx=0;entryDy=0;" edge="1" parent="1" source="hg0VnIa8RW2PHBciKI9P-342" target="hg0VnIa8RW2PHBciKI9P-345">
          <mxGeometry relative="1" as="geometry" />
        </mxCell>
        <mxCell id="hg0VnIa8RW2PHBciKI9P-342" value="" style="rounded=0;whiteSpace=wrap;html=1;" vertex="1" parent="1">
          <mxGeometry x="250" y="510" width="120" height="60" as="geometry" />
        </mxCell>
        <mxCell id="hg0VnIa8RW2PHBciKI9P-343" value="s_draw" style="text;html=1;align=center;verticalAlign=middle;resizable=0;points=[];autosize=1;strokeColor=none;fillColor=none;" vertex="1" parent="1">
          <mxGeometry x="210" y="480" width="60" height="30" as="geometry" />
        </mxCell>
        <mxCell id="hg0VnIa8RW2PHBciKI9P-349" style="edgeStyle=orthogonalEdgeStyle;rounded=0;orthogonalLoop=1;jettySize=auto;html=1;entryX=0.5;entryY=0;entryDx=0;entryDy=0;" edge="1" parent="1" source="hg0VnIa8RW2PHBciKI9P-345" target="hg0VnIa8RW2PHBciKI9P-346">
          <mxGeometry relative="1" as="geometry">
            <Array as="points">
              <mxPoint x="160" y="670" />
            </Array>
          </mxGeometry>
        </mxCell>
        <mxCell id="hg0VnIa8RW2PHBciKI9P-360" style="edgeStyle=orthogonalEdgeStyle;rounded=0;orthogonalLoop=1;jettySize=auto;html=1;entryX=0;entryY=0.5;entryDx=0;entryDy=0;" edge="1" parent="1" source="hg0VnIa8RW2PHBciKI9P-345" target="hg0VnIa8RW2PHBciKI9P-353">
          <mxGeometry relative="1" as="geometry" />
        </mxCell>
        <mxCell id="hg0VnIa8RW2PHBciKI9P-345" value="curr_x == input_x + (ALIEN_WIDTH / 2)" style="rhombus;whiteSpace=wrap;html=1;" vertex="1" parent="1">
          <mxGeometry x="230" y="630" width="160" height="80" as="geometry" />
        </mxCell>
        <mxCell id="hg0VnIa8RW2PHBciKI9P-359" style="edgeStyle=orthogonalEdgeStyle;rounded=0;orthogonalLoop=1;jettySize=auto;html=1;entryX=0;entryY=0.5;entryDx=0;entryDy=0;" edge="1" parent="1" source="hg0VnIa8RW2PHBciKI9P-346" target="hg0VnIa8RW2PHBciKI9P-355">
          <mxGeometry relative="1" as="geometry" />
        </mxCell>
        <mxCell id="hg0VnIa8RW2PHBciKI9P-365" style="edgeStyle=orthogonalEdgeStyle;rounded=0;orthogonalLoop=1;jettySize=auto;html=1;entryX=0.5;entryY=0;entryDx=0;entryDy=0;" edge="1" parent="1" source="hg0VnIa8RW2PHBciKI9P-346" target="hg0VnIa8RW2PHBciKI9P-364">
          <mxGeometry relative="1" as="geometry" />
        </mxCell>
        <mxCell id="hg0VnIa8RW2PHBciKI9P-346" value="curr_y == input_y + (ALIEN_HEIGHT / 2)" style="rhombus;whiteSpace=wrap;html=1;" vertex="1" parent="1">
          <mxGeometry x="80" y="750" width="160" height="80" as="geometry" />
        </mxCell>
        <mxCell id="hg0VnIa8RW2PHBciKI9P-348" value="1" style="text;html=1;align=center;verticalAlign=middle;resizable=0;points=[];autosize=1;strokeColor=none;fillColor=none;" vertex="1" parent="1">
          <mxGeometry x="220" y="640" width="30" height="30" as="geometry" />
        </mxCell>
        <mxCell id="hg0VnIa8RW2PHBciKI9P-352" value="0" style="text;html=1;align=center;verticalAlign=middle;resizable=0;points=[];autosize=1;strokeColor=none;fillColor=none;" vertex="1" parent="1">
          <mxGeometry x="370" y="640" width="30" height="30" as="geometry" />
        </mxCell>
        <mxCell id="hg0VnIa8RW2PHBciKI9P-363" style="edgeStyle=orthogonalEdgeStyle;rounded=0;orthogonalLoop=1;jettySize=auto;html=1;" edge="1" parent="1" source="hg0VnIa8RW2PHBciKI9P-353">
          <mxGeometry relative="1" as="geometry">
            <mxPoint x="560" y="470" as="targetPoint" />
          </mxGeometry>
        </mxCell>
        <mxCell id="hg0VnIa8RW2PHBciKI9P-353" value="&lt;span style=&quot;font-weight: normal;&quot;&gt;curr_x++&lt;/span&gt;" style="rounded=1;whiteSpace=wrap;html=1;arcSize=50;strokeWidth=1;fillColor=none;whiteSpace=wrap;align=center;verticalAlign=middle;spacingLeft=0;fontStyle=1;fontSize=14;spacing=10;" vertex="1" parent="1">
          <mxGeometry x="440" y="660" width="80" height="20" as="geometry" />
        </mxCell>
        <mxCell id="hg0VnIa8RW2PHBciKI9P-362" style="edgeStyle=orthogonalEdgeStyle;rounded=0;orthogonalLoop=1;jettySize=auto;html=1;" edge="1" parent="1" source="hg0VnIa8RW2PHBciKI9P-355">
          <mxGeometry relative="1" as="geometry">
            <mxPoint x="310" y="470" as="targetPoint" />
            <Array as="points">
              <mxPoint x="710" y="790" />
              <mxPoint x="710" y="470" />
            </Array>
          </mxGeometry>
        </mxCell>
        <mxCell id="hg0VnIa8RW2PHBciKI9P-355" value="&lt;span style=&quot;font-weight: normal;&quot;&gt;curr_x = input_x - (ALIEN_WIDTH / 2)&lt;br&gt;curr_y++&lt;br&gt;&lt;/span&gt;" style="rounded=1;whiteSpace=wrap;html=1;arcSize=50;strokeWidth=1;fillColor=none;whiteSpace=wrap;align=center;verticalAlign=middle;spacingLeft=0;fontStyle=1;fontSize=14;spacing=10;" vertex="1" parent="1">
          <mxGeometry x="310" y="765" width="260" height="50" as="geometry" />
        </mxCell>
        <mxCell id="hg0VnIa8RW2PHBciKI9P-358" value="0" style="text;html=1;align=center;verticalAlign=middle;resizable=0;points=[];autosize=1;strokeColor=none;fillColor=none;" vertex="1" parent="1">
          <mxGeometry x="220" y="760" width="30" height="30" as="geometry" />
        </mxCell>
        <mxCell id="hg0VnIa8RW2PHBciKI9P-374" style="edgeStyle=orthogonalEdgeStyle;rounded=0;orthogonalLoop=1;jettySize=auto;html=1;entryX=0;entryY=0.5;entryDx=0;entryDy=0;" edge="1" parent="1" source="hg0VnIa8RW2PHBciKI9P-364" target="hg0VnIa8RW2PHBciKI9P-367">
          <mxGeometry relative="1" as="geometry" />
        </mxCell>
        <mxCell id="hg0VnIa8RW2PHBciKI9P-377" style="edgeStyle=orthogonalEdgeStyle;rounded=0;orthogonalLoop=1;jettySize=auto;html=1;entryX=0.5;entryY=0;entryDx=0;entryDy=0;" edge="1" parent="1" source="hg0VnIa8RW2PHBciKI9P-364" target="hg0VnIa8RW2PHBciKI9P-375">
          <mxGeometry relative="1" as="geometry" />
        </mxCell>
        <mxCell id="hg0VnIa8RW2PHBciKI9P-364" value="erase" style="rhombus;whiteSpace=wrap;html=1;" vertex="1" parent="1">
          <mxGeometry x="105" y="910" width="110" height="50" as="geometry" />
        </mxCell>
        <mxCell id="hg0VnIa8RW2PHBciKI9P-366" value="1" style="text;html=1;align=center;verticalAlign=middle;resizable=0;points=[];autosize=1;strokeColor=none;fillColor=none;" vertex="1" parent="1">
          <mxGeometry x="160" y="820" width="30" height="30" as="geometry" />
        </mxCell>
        <mxCell id="hg0VnIa8RW2PHBciKI9P-372" style="edgeStyle=orthogonalEdgeStyle;rounded=0;orthogonalLoop=1;jettySize=auto;html=1;entryX=0;entryY=0.5;entryDx=0;entryDy=0;" edge="1" parent="1" source="hg0VnIa8RW2PHBciKI9P-367" target="hg0VnIa8RW2PHBciKI9P-369">
          <mxGeometry relative="1" as="geometry" />
        </mxCell>
        <mxCell id="hg0VnIa8RW2PHBciKI9P-367" value="&lt;span style=&quot;font-weight: normal;&quot;&gt;~erase&lt;br&gt;&lt;/span&gt;" style="rounded=1;whiteSpace=wrap;html=1;arcSize=50;strokeWidth=1;fillColor=none;whiteSpace=wrap;align=center;verticalAlign=middle;spacingLeft=0;fontStyle=1;fontSize=14;spacing=10;" vertex="1" parent="1">
          <mxGeometry x="250" y="920" width="105" height="30" as="geometry" />
        </mxCell>
        <mxCell id="hg0VnIa8RW2PHBciKI9P-410" style="edgeStyle=orthogonalEdgeStyle;rounded=0;orthogonalLoop=1;jettySize=auto;html=1;" edge="1" parent="1" source="hg0VnIa8RW2PHBciKI9P-369">
          <mxGeometry relative="1" as="geometry">
            <mxPoint x="710.0000000000002" y="790" as="targetPoint" />
          </mxGeometry>
        </mxCell>
        <mxCell id="hg0VnIa8RW2PHBciKI9P-369" value="&lt;span style=&quot;font-weight: normal;&quot;&gt;curr_x = input_x - (ALIEN WIDTH / 2)&lt;br&gt;curr_y = input_y - (ALIEN_HEIGHT / 2)&lt;br&gt;prev_x = input_x&lt;br&gt;prev_y = input_y&lt;br&gt;&lt;/span&gt;" style="rounded=1;whiteSpace=wrap;html=1;arcSize=50;strokeWidth=1;fillColor=none;whiteSpace=wrap;align=center;verticalAlign=middle;spacingLeft=0;fontStyle=1;fontSize=14;spacing=10;" vertex="1" parent="1">
          <mxGeometry x="385" y="900" width="295" height="70" as="geometry" />
        </mxCell>
        <mxCell id="hg0VnIa8RW2PHBciKI9P-380" style="edgeStyle=orthogonalEdgeStyle;rounded=0;orthogonalLoop=1;jettySize=auto;html=1;" edge="1" parent="1" source="hg0VnIa8RW2PHBciKI9P-375">
          <mxGeometry relative="1" as="geometry">
            <mxPoint x="160" y="1000" as="targetPoint" />
            <Array as="points">
              <mxPoint x="160" y="1140" />
              <mxPoint x="260" y="1140" />
              <mxPoint x="260" y="1000" />
            </Array>
          </mxGeometry>
        </mxCell>
        <mxCell id="hg0VnIa8RW2PHBciKI9P-375" value="done" style="rounded=0;whiteSpace=wrap;html=1;" vertex="1" parent="1">
          <mxGeometry x="100" y="1050" width="120" height="60" as="geometry" />
        </mxCell>
        <mxCell id="hg0VnIa8RW2PHBciKI9P-376" value="s_done" style="text;html=1;align=center;verticalAlign=middle;resizable=0;points=[];autosize=1;strokeColor=none;fillColor=none;" vertex="1" parent="1">
          <mxGeometry x="80" y="1020" width="60" height="30" as="geometry" />
        </mxCell>
        <mxCell id="hg0VnIa8RW2PHBciKI9P-378" value="0" style="text;html=1;align=center;verticalAlign=middle;resizable=0;points=[];autosize=1;strokeColor=none;fillColor=none;" vertex="1" parent="1">
          <mxGeometry x="130" y="950" width="30" height="30" as="geometry" />
        </mxCell>
        <mxCell id="hg0VnIa8RW2PHBciKI9P-379" value="1" style="text;html=1;align=center;verticalAlign=middle;resizable=0;points=[];autosize=1;strokeColor=none;fillColor=none;" vertex="1" parent="1">
          <mxGeometry x="200" y="910" width="30" height="30" as="geometry" />
        </mxCell>
        <mxCell id="hg0VnIa8RW2PHBciKI9P-386" style="edgeStyle=orthogonalEdgeStyle;rounded=0;orthogonalLoop=1;jettySize=auto;html=1;entryX=0.5;entryY=0;entryDx=0;entryDy=0;" edge="1" parent="1" source="hg0VnIa8RW2PHBciKI9P-381" target="hg0VnIa8RW2PHBciKI9P-385">
          <mxGeometry relative="1" as="geometry" />
        </mxCell>
        <mxCell id="hg0VnIa8RW2PHBciKI9P-381" value="input_x = alien_x&lt;br&gt;input_y = alien_y" style="rounded=0;whiteSpace=wrap;html=1;" vertex="1" parent="1">
          <mxGeometry x="870" y="290" width="120" height="60" as="geometry" />
        </mxCell>
        <mxCell id="hg0VnIa8RW2PHBciKI9P-382" value="s_start" style="text;html=1;align=center;verticalAlign=middle;resizable=0;points=[];autosize=1;strokeColor=none;fillColor=none;" vertex="1" parent="1">
          <mxGeometry x="830" y="260" width="60" height="30" as="geometry" />
        </mxCell>
        <mxCell id="hg0VnIa8RW2PHBciKI9P-384" style="edgeStyle=orthogonalEdgeStyle;rounded=0;orthogonalLoop=1;jettySize=auto;html=1;entryX=0.5;entryY=0;entryDx=0;entryDy=0;" edge="1" parent="1" source="hg0VnIa8RW2PHBciKI9P-383" target="hg0VnIa8RW2PHBciKI9P-381">
          <mxGeometry relative="1" as="geometry" />
        </mxCell>
        <mxCell id="hg0VnIa8RW2PHBciKI9P-383" value="reset" style="text;html=1;align=center;verticalAlign=middle;resizable=0;points=[];autosize=1;strokeColor=none;fillColor=none;" vertex="1" parent="1">
          <mxGeometry x="905" y="218" width="50" height="30" as="geometry" />
        </mxCell>
        <mxCell id="hg0VnIa8RW2PHBciKI9P-390" style="edgeStyle=orthogonalEdgeStyle;rounded=0;orthogonalLoop=1;jettySize=auto;html=1;entryX=1;entryY=0.5;entryDx=0;entryDy=0;" edge="1" parent="1" source="hg0VnIa8RW2PHBciKI9P-385" target="hg0VnIa8RW2PHBciKI9P-388">
          <mxGeometry relative="1" as="geometry" />
        </mxCell>
        <mxCell id="hg0VnIa8RW2PHBciKI9P-394" style="edgeStyle=orthogonalEdgeStyle;rounded=0;orthogonalLoop=1;jettySize=auto;html=1;entryX=0.5;entryY=0;entryDx=0;entryDy=0;" edge="1" parent="1" source="hg0VnIa8RW2PHBciKI9P-385" target="hg0VnIa8RW2PHBciKI9P-393">
          <mxGeometry relative="1" as="geometry" />
        </mxCell>
        <mxCell id="hg0VnIa8RW2PHBciKI9P-385" value="prev_x == alien_x&lt;br&gt;&amp;amp;&amp;amp;&lt;br&gt;prev_y == alien_y" style="rhombus;whiteSpace=wrap;html=1;" vertex="1" parent="1">
          <mxGeometry x="835" y="380" width="190" height="100" as="geometry" />
        </mxCell>
        <mxCell id="hg0VnIa8RW2PHBciKI9P-409" style="edgeStyle=orthogonalEdgeStyle;rounded=0;orthogonalLoop=1;jettySize=auto;html=1;entryX=1;entryY=0.5;entryDx=0;entryDy=0;" edge="1" parent="1" source="hg0VnIa8RW2PHBciKI9P-388" target="hg0VnIa8RW2PHBciKI9P-389">
          <mxGeometry relative="1" as="geometry" />
        </mxCell>
        <mxCell id="hg0VnIa8RW2PHBciKI9P-388" value="&lt;span style=&quot;font-weight: normal;&quot;&gt;erase&lt;br&gt;&lt;/span&gt;" style="rounded=1;whiteSpace=wrap;html=1;arcSize=50;strokeWidth=1;fillColor=none;whiteSpace=wrap;align=center;verticalAlign=middle;spacingLeft=0;fontStyle=1;fontSize=14;spacing=10;" vertex="1" parent="1">
          <mxGeometry x="740" y="420" width="70" height="20" as="geometry" />
        </mxCell>
        <mxCell id="hg0VnIa8RW2PHBciKI9P-392" style="edgeStyle=orthogonalEdgeStyle;rounded=0;orthogonalLoop=1;jettySize=auto;html=1;" edge="1" parent="1" source="hg0VnIa8RW2PHBciKI9P-389">
          <mxGeometry relative="1" as="geometry">
            <mxPoint x="310" y="430" as="targetPoint" />
          </mxGeometry>
        </mxCell>
        <mxCell id="hg0VnIa8RW2PHBciKI9P-389" value="&lt;span style=&quot;font-weight: normal;&quot;&gt;curr_x = prev_x - (ALIEN_WIDTH / 2)&lt;br&gt;curr_y = prev_y - (ALIEN_HEIGHT / 2)&lt;br&gt;&lt;/span&gt;" style="rounded=1;whiteSpace=wrap;html=1;arcSize=50;strokeWidth=1;fillColor=none;whiteSpace=wrap;align=center;verticalAlign=middle;spacingLeft=0;fontStyle=1;fontSize=14;spacing=10;" vertex="1" parent="1">
          <mxGeometry x="450" y="406" width="270" height="48" as="geometry" />
        </mxCell>
        <mxCell id="hg0VnIa8RW2PHBciKI9P-395" style="edgeStyle=orthogonalEdgeStyle;rounded=0;orthogonalLoop=1;jettySize=auto;html=1;" edge="1" parent="1" source="hg0VnIa8RW2PHBciKI9P-393">
          <mxGeometry relative="1" as="geometry">
            <mxPoint x="260.0000000000002" y="1000" as="targetPoint" />
            <Array as="points">
              <mxPoint x="930" y="1000" />
            </Array>
          </mxGeometry>
        </mxCell>
        <mxCell id="hg0VnIa8RW2PHBciKI9P-393" value="&lt;span style=&quot;font-weight: normal;&quot;&gt;curr_x = alien_x&lt;br&gt;curr_y = alien_y&lt;br&gt;&lt;/span&gt;" style="rounded=1;whiteSpace=wrap;html=1;arcSize=50;strokeWidth=1;fillColor=none;whiteSpace=wrap;align=center;verticalAlign=middle;spacingLeft=0;fontStyle=1;fontSize=14;spacing=10;" vertex="1" parent="1">
          <mxGeometry x="855" y="516" width="150" height="48" as="geometry" />
        </mxCell>
        <mxCell id="hg0VnIa8RW2PHBciKI9P-396" value="" style="rounded=0;whiteSpace=wrap;html=1;fillColor=none;strokeColor=#10739e;dashed=1;dashPattern=12 12;" vertex="1" parent="1">
          <mxGeometry x="190" y="295" width="220" height="125" as="geometry" />
        </mxCell>
        <mxCell id="hg0VnIa8RW2PHBciKI9P-398" value="" style="rounded=0;whiteSpace=wrap;html=1;fillColor=none;strokeColor=#10739e;dashed=1;dashPattern=12 12;" vertex="1" parent="1">
          <mxGeometry x="70" y="1010" width="170" height="120" as="geometry" />
        </mxCell>
        <mxCell id="hg0VnIa8RW2PHBciKI9P-400" value="" style="endArrow=none;dashed=1;html=1;rounded=0;fillColor=#b1ddf0;strokeColor=#10739e;dashPattern=12 12;" edge="1" parent="1">
          <mxGeometry width="50" height="50" relative="1" as="geometry">
            <mxPoint x="430" y="260" as="sourcePoint" />
            <mxPoint x="430" y="460" as="targetPoint" />
          </mxGeometry>
        </mxCell>
        <mxCell id="hg0VnIa8RW2PHBciKI9P-401" value="" style="endArrow=none;dashed=1;html=1;rounded=0;fillColor=#b1ddf0;strokeColor=#10739e;dashPattern=12 12;" edge="1" parent="1">
          <mxGeometry width="50" height="50" relative="1" as="geometry">
            <mxPoint x="430" y="460" as="sourcePoint" />
            <mxPoint x="800" y="460" as="targetPoint" />
          </mxGeometry>
        </mxCell>
        <mxCell id="hg0VnIa8RW2PHBciKI9P-402" value="" style="endArrow=none;dashed=1;html=1;rounded=0;fillColor=#b1ddf0;strokeColor=#10739e;dashPattern=12 12;" edge="1" parent="1">
          <mxGeometry width="50" height="50" relative="1" as="geometry">
            <mxPoint x="800" y="460" as="sourcePoint" />
            <mxPoint x="800" y="600" as="targetPoint" />
          </mxGeometry>
        </mxCell>
        <mxCell id="hg0VnIa8RW2PHBciKI9P-403" value="" style="endArrow=none;dashed=1;html=1;rounded=0;fillColor=#b1ddf0;strokeColor=#10739e;dashPattern=12 12;" edge="1" parent="1">
          <mxGeometry width="50" height="50" relative="1" as="geometry">
            <mxPoint x="800" y="600" as="sourcePoint" />
            <mxPoint x="1040" y="600" as="targetPoint" />
          </mxGeometry>
        </mxCell>
        <mxCell id="hg0VnIa8RW2PHBciKI9P-404" value="" style="endArrow=none;dashed=1;html=1;rounded=0;fillColor=#b1ddf0;strokeColor=#10739e;dashPattern=12 12;" edge="1" parent="1">
          <mxGeometry width="50" height="50" relative="1" as="geometry">
            <mxPoint x="430" y="260" as="sourcePoint" />
            <mxPoint x="1040" y="260" as="targetPoint" />
          </mxGeometry>
        </mxCell>
        <mxCell id="hg0VnIa8RW2PHBciKI9P-405" value="" style="endArrow=none;dashed=1;html=1;rounded=0;fillColor=#b1ddf0;strokeColor=#10739e;dashPattern=12 12;" edge="1" parent="1">
          <mxGeometry width="50" height="50" relative="1" as="geometry">
            <mxPoint x="1040" y="260" as="sourcePoint" />
            <mxPoint x="1040" y="600" as="targetPoint" />
          </mxGeometry>
        </mxCell>
        <mxCell id="hg0VnIa8RW2PHBciKI9P-407" value="1" style="text;html=1;align=center;verticalAlign=middle;resizable=0;points=[];autosize=1;strokeColor=none;fillColor=none;" vertex="1" parent="1">
          <mxGeometry x="925" y="480" width="30" height="30" as="geometry" />
        </mxCell>
        <mxCell id="hg0VnIa8RW2PHBciKI9P-408" value="0" style="text;html=1;align=center;verticalAlign=middle;resizable=0;points=[];autosize=1;strokeColor=none;fillColor=none;" vertex="1" parent="1">
          <mxGeometry x="820" y="395" width="30" height="30" as="geometry" />
        </mxCell>
      </root>
    </mxGraphModel>
  </diagram>
</mxfile>
